<?xml version="1.0" encoding="utf-8"?>
<!-- Generator: Adobe Illustrator 22.0.0, SVG Export Plug-In . SVG Version: 6.00 Build 0)  -->
<svg version="1.1" xmlns="http://www.w3.org/2000/svg" xmlns:xlink="http://www.w3.org/1999/xlink" x="0px" y="0px"
	 viewBox="0 0 256 256" style="enable-background:new 0 0 256 256;" xml:space="preserve">
<style type="text/css">
	.st0{display:none;}
	.st1{display:inline;}
	.st2{fill:none;stroke:#6B1D1D;stroke-width:0.5;stroke-miterlimit:10;}
	.st3{fill:#3A312A;}
	.st4{fill:#87796F;}
	.st5{fill:#D5DE58;}
	.st6{fill:#695B51;}
	.st7{fill:#FCE8CB;}
	.st8{fill:#F16C7A;}
	.st9{fill:#8AC6DD;}
	.st10{fill:#DECAAD;}
	.st11{fill:#D6DF58;}
	.st12{fill-rule:evenodd;clip-rule:evenodd;fill:#FCE8CB;}
	.st13{fill:#F5978A;}
	.st14{fill:#D7E057;}
	.st15{fill-rule:evenodd;clip-rule:evenodd;fill:#87796F;}
	.st16{fill:#6CA8BF;}
	.st17{fill:#B9C239;}
	.st18{fill:#D34E5C;}
	.st19{fill:#FAE6CA;}
	.st20{fill:#F8E4C8;}
	.st21{fill:#8AC5DC;}
	.st22{fill:#EF6D7A;}
	.st23{fill:#EB6E7A;}
	.st24{fill:#89C4DB;}
	.st25{fill-rule:evenodd;clip-rule:evenodd;fill:#F16C7A;}
	.st26{fill:#F7E3C7;}
	.st27{fill:#F6E2C6;}
	.st28{fill:#ED6E7A;}
	.st29{fill:#8AC3DA;}
	.st30{fill:#D5DC57;}
	.st31{fill-rule:evenodd;clip-rule:evenodd;fill:#D7E057;}
	.st32{fill-rule:evenodd;clip-rule:evenodd;fill:#F8E4C8;}
	.st33{fill:#D4DB56;}
	.st34{fill:#F59689;}
	.st35{fill:#DDC9AC;}
	.st36{fill:#D24E5C;}
	.st37{fill:#6A5C52;}
	.st38{fill:#6CA6BE;}
	.st39{fill:#B8C136;}
	.st40{fill-rule:evenodd;clip-rule:evenodd;fill:#FAE6CA;}
</style>
<g id="Layer_2" class="st0">
	<g class="st1">
		<g>
			<line class="st2" x1="0" y1="4.829" x2="256" y2="4.829"/>
			<line class="st2" x1="0" y1="16.56" x2="256" y2="16.56"/>
			<line class="st2" x1="0" y1="28.29" x2="256" y2="28.29"/>
			<line class="st2" x1="0" y1="40.021" x2="256" y2="40.021"/>
			<line class="st2" x1="0" y1="51.751" x2="256" y2="51.751"/>
			<line class="st2" x1="0" y1="63.482" x2="256" y2="63.482"/>
			<line class="st2" x1="0" y1="75.213" x2="256" y2="75.213"/>
			<line class="st2" x1="0" y1="86.943" x2="256" y2="86.943"/>
			<line class="st2" x1="0" y1="98.674" x2="256" y2="98.674"/>
			<line class="st2" x1="0" y1="110.404" x2="256" y2="110.404"/>
			<line class="st2" x1="0" y1="122.135" x2="256" y2="122.135"/>
			<line class="st2" x1="0" y1="133.865" x2="256" y2="133.865"/>
			<line class="st2" x1="0" y1="145.596" x2="256" y2="145.596"/>
			<line class="st2" x1="0" y1="157.326" x2="256" y2="157.326"/>
			<line class="st2" x1="0" y1="169.057" x2="256" y2="169.057"/>
			<line class="st2" x1="0" y1="180.788" x2="256" y2="180.788"/>
			<line class="st2" x1="0" y1="192.518" x2="256" y2="192.518"/>
			<line class="st2" x1="0" y1="204.249" x2="256" y2="204.249"/>
			<line class="st2" x1="0" y1="215.979" x2="256" y2="215.979"/>
			<line class="st2" x1="0" y1="227.71" x2="256" y2="227.71"/>
			<line class="st2" x1="0" y1="239.44" x2="256" y2="239.44"/>
			<line class="st2" x1="0" y1="251.171" x2="256" y2="251.171"/>
		</g>
		<g>
			<line class="st2" x1="251.171" y1="0" x2="251.171" y2="256"/>
			<line class="st2" x1="239.44" y1="0" x2="239.44" y2="256"/>
			<line class="st2" x1="227.71" y1="0" x2="227.71" y2="256"/>
			<line class="st2" x1="215.979" y1="0" x2="215.979" y2="256"/>
			<line class="st2" x1="204.249" y1="0" x2="204.249" y2="256"/>
			<line class="st2" x1="192.518" y1="0" x2="192.518" y2="256"/>
			<line class="st2" x1="180.788" y1="0" x2="180.788" y2="256"/>
			<line class="st2" x1="169.057" y1="0" x2="169.057" y2="256"/>
			<line class="st2" x1="157.326" y1="0" x2="157.326" y2="256"/>
			<line class="st2" x1="145.596" y1="0" x2="145.596" y2="256"/>
			<line class="st2" x1="133.865" y1="0" x2="133.865" y2="256"/>
			<line class="st2" x1="122.135" y1="0" x2="122.135" y2="256"/>
			<line class="st2" x1="110.404" y1="0" x2="110.404" y2="256"/>
			<line class="st2" x1="98.674" y1="0" x2="98.674" y2="256"/>
			<line class="st2" x1="86.943" y1="0" x2="86.943" y2="256"/>
			<line class="st2" x1="75.213" y1="0" x2="75.213" y2="256"/>
			<line class="st2" x1="63.482" y1="0" x2="63.482" y2="256"/>
			<line class="st2" x1="51.751" y1="0" x2="51.751" y2="256"/>
			<line class="st2" x1="40.021" y1="0" x2="40.021" y2="256"/>
			<line class="st2" x1="28.29" y1="0" x2="28.29" y2="256"/>
			<line class="st2" x1="16.56" y1="0" x2="16.56" y2="256"/>
			<line class="st2" x1="4.829" y1="0" x2="4.829" y2="256"/>
		</g>
	</g>
</g>
<g id="Layer_1">
	<g>
		<path class="st11" d="M132.543,150.449c0,0,3.408,12.659,13.222,13.246c0,0-13.1,4.525-13.321,14.202
			c0,0-2.578-13.572-12.925-14.059C119.518,163.838,131.569,162.012,132.543,150.449z"/>
		<path class="st3" d="M132.442,179.396c-0.713,0-1.335-0.506-1.473-1.218c-0.023-0.124-2.494-12.417-11.521-12.843
			c-0.771-0.036-1.388-0.65-1.428-1.421c-0.04-0.77,0.511-1.444,1.273-1.56c0.441-0.068,10.894-1.816,11.754-12.032
			c0.062-0.726,0.635-1.301,1.359-1.367c0.734-0.051,1.394,0.399,1.584,1.102c0.031,0.116,3.259,11.626,11.863,12.142
			c0.714,0.043,1.298,0.584,1.395,1.292c0.098,0.708-0.318,1.388-0.994,1.622c-0.121,0.042-12.119,4.311-12.312,12.819
			c-0.018,0.767-0.61,1.396-1.375,1.46C132.526,179.395,132.484,179.396,132.442,179.396z M124.701,163.667
			c3.878,1.969,6.23,5.746,7.587,8.876c2.026-4.021,5.941-6.787,8.949-8.427c-4.135-1.843-6.783-5.651-8.334-8.723
			C131.11,159.754,127.632,162.262,124.701,163.667z"/>
		<path class="st11" d="M110.844,167.429c0,0,2.411,8.954,9.352,9.369c0,0-9.266,3.201-9.422,10.045c0,0-1.824-9.6-9.142-9.944
			C101.632,176.9,110.155,175.608,110.844,167.429z"/>
		<path class="st3" d="M110.772,188.344c-0.714,0-1.337-0.507-1.473-1.22c-0.016-0.082-1.704-8.442-7.738-8.726
			c-0.771-0.036-1.388-0.65-1.428-1.421c-0.04-0.77,0.511-1.444,1.273-1.561c0.296-0.047,7.363-1.242,7.941-8.113
			c0.062-0.726,0.636-1.303,1.361-1.368c0.724-0.053,1.392,0.399,1.581,1.102l0,0c0.022,0.079,2.229,7.92,7.994,8.266
			c0.714,0.043,1.299,0.584,1.396,1.293c0.097,0.709-0.32,1.389-0.997,1.622c-0.08,0.028-8.281,2.952-8.411,8.661
			c-0.018,0.768-0.611,1.398-1.376,1.461C110.855,188.342,110.813,188.344,110.772,188.344z M106.254,176.816
			c2.106,1.333,3.522,3.395,4.446,5.279c1.376-2.232,3.516-3.871,5.365-4.972c-2.287-1.269-3.884-3.351-4.941-5.225
			C109.951,174.186,108.109,175.775,106.254,176.816z"/>
		<path class="st11" d="M110.844,140.771c0,0,2.411,8.954,9.352,9.37c0,0-9.266,3.201-9.422,10.045c0,0-1.824-9.6-9.142-9.944
			C101.632,150.242,110.155,148.951,110.844,140.771z"/>
		<path class="st3" d="M110.772,161.686c-0.714,0-1.337-0.507-1.473-1.22c-0.016-0.082-1.704-8.442-7.738-8.727
			c-0.771-0.036-1.388-0.65-1.428-1.421c-0.04-0.77,0.511-1.444,1.273-1.561c0.296-0.047,7.363-1.242,7.941-8.113
			c0.062-0.726,0.636-1.303,1.361-1.368c0.724-0.052,1.392,0.4,1.581,1.102l0,0c0.022,0.079,2.229,7.92,7.994,8.265
			c0.714,0.042,1.299,0.584,1.396,1.293c0.097,0.709-0.32,1.388-0.996,1.622c-0.081,0.028-8.282,2.953-8.412,8.662
			c-0.018,0.768-0.611,1.397-1.376,1.461C110.855,161.685,110.813,161.686,110.772,161.686z M106.254,150.159
			c2.106,1.333,3.522,3.394,4.446,5.279c1.376-2.232,3.516-3.872,5.365-4.973c-2.287-1.27-3.884-3.35-4.941-5.224
			C109.951,147.529,108.109,149.118,106.254,150.159z"/>
		<path class="st4" d="M49.903,224.552v7.008c0,4.175-3.386,7.56-7.57,7.56h-1.549c-4.175,0-7.56-3.385-7.56-7.56v-7.008H49.903z"/>
		<path class="st3" d="M42.333,240.62h-1.55c-4.996,0-9.06-4.064-9.06-9.061v-7.008c0-0.828,0.672-1.5,1.5-1.5h16.681
			c0.828,0,1.5,0.672,1.5,1.5v7.008C51.403,236.556,47.334,240.62,42.333,240.62z M34.723,226.052v5.508
			c0,3.342,2.719,6.061,6.061,6.061h1.55c3.348,0,6.07-2.719,6.07-6.061v-5.508H34.723z"/>
		<path class="st4" d="M66.573,224.552v7.008c0,4.175-3.385,7.56-7.56,7.56h-1.549c-4.175,0-7.56-3.385-7.56-7.56v-7.008H66.573z"/>
		<path class="st3" d="M59.013,240.62h-1.55c-4.995,0-9.06-4.064-9.06-9.061v-7.008c0-0.828,0.672-1.5,1.5-1.5h16.67
			c0.828,0,1.5,0.672,1.5,1.5v7.008C68.073,236.556,64.009,240.62,59.013,240.62z M51.403,226.052v5.508
			c0,3.342,2.719,6.061,6.06,6.061h1.55c3.342,0,6.06-2.719,6.06-6.061v-5.508H51.403z"/>
		<polygon class="st9" points="28.964,199.939 28.964,224.556 71.231,224.556 71.231,159.355 28.964,159.355 28.964,186.686 		"/>
		<path class="st3" d="M71.23,226.056H28.964c-0.828,0-1.5-0.672-1.5-1.5v-24.617c0-0.828,0.672-1.5,1.5-1.5
			c0.828,0,1.5,0.672,1.5,1.5v23.117H69.73v-62.2H30.464v25.831c0,0.828-0.672,1.5-1.5,1.5c-0.828,0-1.5-0.672-1.5-1.5v-27.331
			c0-0.828,0.672-1.5,1.5-1.5H71.23c0.828,0,1.5,0.672,1.5,1.5v65.2C72.73,225.384,72.059,226.056,71.23,226.056z"/>
		<path class="st3" d="M49.896,226.056c-0.828,0-1.5-0.672-1.5-1.5v-65.2c0-0.828,0.672-1.5,1.5-1.5c0.828,0,1.5,0.672,1.5,1.5v65.2
			C51.396,225.384,50.725,226.056,49.896,226.056z"/>
		<path class="st7" d="M83.322,116.364v42.998H16.859v-42.998c0-8.279,6.722-15.002,15.002-15.002h9.905v-6.238
			c2.79,2.006,5.65,3.194,8.36,3.194c2.744,0,5.569-1.107,8.302-2.998v6.042h9.916C76.611,101.362,83.322,108.085,83.322,116.364z"
			/>
		<path class="st3" d="M83.321,160.862H16.858c-0.828,0-1.5-0.672-1.5-1.5v-42.998c0-9.1,7.402-16.502,16.502-16.502h8.404v-4.738
			c0-0.562,0.316-1.078,0.816-1.335c0.502-0.257,1.102-0.213,1.56,0.117c2.688,1.933,5.205,2.912,7.484,2.912
			c2.324,0,4.83-0.919,7.448-2.731c0.457-0.317,1.056-0.354,1.55-0.096c0.494,0.26,0.804,0.771,0.804,1.329v4.542h8.416
			c9.086,0,16.479,7.402,16.479,16.502v42.998C84.821,160.19,84.149,160.862,83.321,160.862z M18.358,157.862h63.463v-41.498
			c0-7.445-6.047-13.502-13.479-13.502h-9.916c-0.828,0-1.5-0.672-1.5-1.5v-3.376c-4.625,2.428-8.915,2.484-13.662-0.134v3.51
			c0,0.828-0.672,1.5-1.5,1.5H31.86c-7.445,0-13.502,6.057-13.502,13.502V157.862z"/>
		<polygon class="st4" points="50.147,111.041 50.128,111.061 50.098,111.041 50.118,111.011 		"/>
		<path class="st3" d="M50.127,112.561c-0.28,0-0.562-0.078-0.812-0.239c-0.696-0.449-0.927-1.397-0.478-2.094
			c0.246-0.381,0.661-0.646,1.111-0.693c0.45-0.046,0.908,0.096,1.229,0.416c0.586,0.586,0.616,1.565,0.03,2.151l-0.02,0.02
			C50.899,112.411,50.515,112.561,50.127,112.561z"/>
		<path class="st4" d="M83.327,116.367v42.993H16.858v-42.993c0-8.277,6.722-14.999,14.999-14.999h2.673l-0.03,0.02l10.302,13.673
			l5.326-3.999l5.315,3.999l10.302-13.673l-0.03-0.02h2.623C76.616,101.367,83.327,108.089,83.327,116.367z"/>
		<path class="st3" d="M83.327,160.86H16.858c-0.828,0-1.5-0.672-1.5-1.5v-42.994c0-9.098,7.401-16.499,16.499-16.499h2.673
			c0.595,0,1.127,0.351,1.367,0.882l9.201,12.213l4.129-3.101c0.533-0.4,1.268-0.401,1.803,0.001l4.117,3.099l9.255-12.283
			c0.252-0.488,0.748-0.81,1.312-0.81h2.623c9.092,0,16.489,7.401,16.489,16.499v42.994C84.827,160.189,84.155,160.86,83.327,160.86
			z M18.358,157.86h63.469v-41.494c0-7.443-6.051-13.499-13.489-13.499h-1.829l-9.867,13.096c-0.499,0.662-1.44,0.795-2.101,0.296
			l-4.414-3.321l-4.425,3.322c-0.66,0.499-1.6,0.365-2.099-0.297l-9.867-13.096h-1.879c-7.443,0-13.499,6.056-13.499,13.499V157.86z
			"/>
		<path class="st3" d="M28.964,160.856c-0.828,0-1.5-0.672-1.5-1.5v-40.138c0-0.828,0.672-1.5,1.5-1.5c0.828,0,1.5,0.672,1.5,1.5
			v40.138C30.464,160.185,29.792,160.856,28.964,160.856z"/>
		<path class="st3" d="M71.23,160.856c-0.828,0-1.5-0.672-1.5-1.5v-40.138c0-0.828,0.672-1.5,1.5-1.5c0.828,0,1.5,0.672,1.5,1.5
			v40.138C72.73,160.185,72.059,160.856,71.23,160.856z"/>
		<path class="st7" d="M77.281,171.456L77.281,171.456c-3.341,0-6.05-2.709-6.05-6.051v-6.05h12.101v6.05
			C83.332,168.747,80.623,171.456,77.281,171.456z"/>
		<path class="st3" d="M77.281,172.956c-4.163,0-7.551-3.388-7.551-7.551v-6.05c0-0.828,0.672-1.5,1.5-1.5h12.102
			c0.828,0,1.5,0.672,1.5,1.5v6.05C84.832,169.568,81.444,172.956,77.281,172.956z M72.73,160.855v4.55
			c0,2.51,2.041,4.551,4.551,4.551c2.51,0,4.551-2.041,4.551-4.551v-4.55H72.73z"/>
		<polygon class="st9" points="56.971,146.507 50.073,154.358 43.165,146.507 46.988,121.719 53.157,121.719 		"/>
		<path class="st3" d="M50.072,155.858c-0.431,0-0.842-0.186-1.126-0.509l-6.908-7.852c-0.294-0.334-0.424-0.78-0.357-1.22
			l3.824-24.787c0.113-0.731,0.742-1.271,1.482-1.271h6.169c0.74,0,1.37,0.54,1.482,1.271l3.813,24.787
			c0.067,0.439-0.062,0.885-0.355,1.219l-6.898,7.852C50.914,155.673,50.504,155.858,50.072,155.858
			C50.072,155.858,50.072,155.858,50.072,155.858z M44.754,146.043l5.317,6.044l5.311-6.044L51.87,123.22h-3.596L44.754,146.043z"/>
		<polygon class="st9" points="55.283,111.037 53.149,121.719 46.993,121.719 44.908,111.037 		"/>
		<path class="st3" d="M53.148,123.22h-6.155c-0.718,0-1.335-0.509-1.473-1.213l-2.085-10.683c-0.085-0.439,0.03-0.895,0.314-1.241
			c0.285-0.346,0.71-0.546,1.158-0.546h10.375c0.449,0,0.875,0.201,1.16,0.549c0.285,0.348,0.398,0.805,0.31,1.245l-2.135,10.683
			C54.479,122.715,53.863,123.22,53.148,123.22z M48.229,120.22h3.69l1.535-7.683h-6.725L48.229,120.22z"/>
		<path class="st12" d="M30.208,64.454c0,3.269-2.65,5.919-5.919,5.919c-3.269,0-5.919-2.65-5.919-5.919
			c0-3.269,2.65-5.919,5.919-5.919C27.558,58.535,30.208,61.186,30.208,64.454z"/>
		<path class="st3" d="M24.289,71.874c-4.091,0-7.419-3.328-7.419-7.42c0-4.091,3.328-7.419,7.419-7.419
			c4.092,0,7.42,3.328,7.42,7.419C31.709,68.546,28.381,71.874,24.289,71.874z M24.289,60.035c-2.437,0-4.419,1.982-4.419,4.419
			c0,2.438,1.982,4.42,4.419,4.42c2.438,0,4.42-1.982,4.42-4.42C28.709,62.018,26.727,60.035,24.289,60.035z"/>
		<path class="st12" d="M81.872,64.454c0,3.269-2.65,5.919-5.919,5.919c-3.269,0-5.919-2.65-5.919-5.919
			c0-3.269,2.65-5.919,5.919-5.919C79.222,58.535,81.872,61.186,81.872,64.454z"/>
		<path class="st3" d="M75.953,71.874c-4.091,0-7.419-3.328-7.419-7.42c0-4.091,3.328-7.419,7.419-7.419
			c4.091,0,7.419,3.328,7.419,7.419C83.372,68.546,80.044,71.874,75.953,71.874z M75.953,60.035c-2.437,0-4.419,1.982-4.419,4.419
			c0,2.438,1.982,4.42,4.419,4.42s4.419-1.982,4.419-4.42C80.372,62.018,78.39,60.035,75.953,60.035z"/>
		<path class="st7" d="M76.361,61.581c0,14.492-13.957,36.736-26.24,36.736c-11.725,0-26.24-22.244-26.24-36.736
			c0-14.492,11.748-26.24,26.24-26.24C64.613,35.341,76.361,47.089,76.361,61.581z"/>
		<path class="st3" d="M50.121,99.817c-12.861,0-27.74-23.139-27.74-38.236c0-15.296,12.444-27.74,27.74-27.74
			s27.74,12.444,27.74,27.74C77.861,77.026,63.249,99.817,50.121,99.817z M50.121,36.841c-13.642,0-24.74,11.099-24.74,24.74
			c0,13.389,13.821,35.236,24.74,35.236c11.231,0,24.74-21.643,24.74-35.236C74.861,47.939,63.763,36.841,50.121,36.841z"/>
		<path class="st4" d="M50.424,29.55c-15,0-27.16,11.626-27.16,25.967c0,1.518,0.275,2.649,0.785,4.062
			c0.241,0.666,4.13-1.461,4.461-1.694c1.656-1.166,3.009-2.746,4.021-4.493c0.418-0.726,0.767-1.466,1.048-2.205
			c0.895-2.359,3.328-8.922,5.798-8.407c3.312,0.69,7.066,1.081,11.048,1.081c3.982,0,7.736-0.39,11.048-1.081
			c2.47-0.515,4.903,6.049,5.798,8.407c0.281,0.739,0.63,1.479,1.048,2.205c1.671,2.89,4.493,5.641,7.926,6.142
			c0.008-0.166,0.218-0.222,0.374-0.279c1.124-0.408,0.966-2.836,0.966-3.737C77.584,41.175,65.424,29.55,50.424,29.55z"/>
		<path class="st3" d="M24.256,61.19c-0.194,0-0.373-0.022-0.531-0.072c-0.512-0.161-0.907-0.536-1.086-1.029
			c-0.525-1.455-0.874-2.788-0.874-4.572c0-15.146,12.857-27.467,28.659-27.467c15.804,0,28.66,12.321,28.66,27.466l0.003,0.281
			c0.021,1.401,0.058,3.974-1.782,4.795c-0.035,0.035-0.072,0.068-0.11,0.101c-0.327,0.268-0.755,0.386-1.167,0.324
			c-3.441-0.501-6.808-3.071-9.009-6.875c-0.45-0.783-0.837-1.598-1.151-2.423l-0.055-0.145c-2.49-6.574-3.75-7.269-4.076-7.325
			c-3.496,0.735-7.316,1.109-11.312,1.109s-7.816-0.374-11.354-1.111c-0.284,0.059-1.541,0.752-4.031,7.318l-0.058,0.152
			c-0.313,0.826-0.7,1.641-1.15,2.422c-1.171,2.025-2.712,3.742-4.457,4.971C29.341,59.134,26.107,61.19,24.256,61.19z
			 M76.484,59.301l0.544,1.398c0.03-0.012,0.062-0.027,0.096-0.047L76.484,59.301z M77.741,59.615 M50.424,31.05
			c-14.148,0-25.659,10.976-25.659,24.467c0,0.918,0.116,1.66,0.327,2.421c0.9-0.375,2.169-1.031,2.574-1.294
			c1.372-0.967,2.612-2.355,3.565-4.004c0.37-0.641,0.688-1.309,0.944-1.986l0.058-0.151c1.961-5.172,4.24-9.86,7.448-9.192
			c3.338,0.696,6.951,1.049,10.742,1.049s7.404-0.352,10.741-1.049c3.24-0.663,5.492,4.025,7.453,9.202l0.054,0.142
			c0.258,0.677,0.576,1.347,0.945,1.989c1.608,2.781,3.912,4.719,6.256,5.291c0.016-0.007,0.032-0.014,0.048-0.021
			c0.126-0.306,0.182-1.001,0.166-2.072l-0.003-0.325C76.084,42.025,64.573,31.05,50.424,31.05z"/>
		<path class="st4" d="M25.429,32.095c2.073,3.268,4.482,6.325,7.308,8.968c3.43,3.206,7.316,5.838,11.404,7
			c10.365,2.947,28.71-0.729,28.71-15.648c0-9.54-7.996-21.07-22.918-12.291C31.436,31.007,20.7,10.089,20.7,19.628
			c0,0.916,0.169,2.028,0.442,3.188c0.654,2.776,1.828,5.403,3.356,7.812L25.429,32.095z"/>
		<path class="st3" d="M51.385,50.494c-2.772,0-5.409-0.35-7.653-0.988c-3.966-1.127-8.009-3.599-12.018-7.347
			c-2.734-2.557-5.274-5.673-7.551-9.261l-0.931-1.467c-1.69-2.664-2.885-5.447-3.55-8.271c-0.32-1.358-0.482-2.546-0.482-3.532
			c0-1.357,0.168-3.012,1.479-3.754c1.539-0.872,3.28,0.171,5.688,1.614c4.647,2.788,12.426,7.45,22.808,1.344
			c8.175-4.811,13.877-3.538,17.225-1.626c4.832,2.764,7.954,8.733,7.954,15.209c0,5.394-2.255,9.947-6.521,13.17
			C63.264,49.034,57.044,50.494,51.385,50.494z M22.261,18.654c-0.032,0.203-0.062,0.513-0.062,0.974
			c0,0.744,0.139,1.728,0.402,2.845c0.588,2.497,1.652,4.971,3.163,7.351l0.931,1.467l0,0c2.141,3.374,4.518,6.294,7.066,8.677
			c3.657,3.419,7.288,5.657,10.79,6.653c5.964,1.694,15.513,1.069,21.47-3.43c3.537-2.671,5.33-6.297,5.33-10.776
			c0-4.439-1.992-10.059-6.444-12.605c-3.809-2.179-8.726-1.622-14.213,1.608c-11.918,7.015-20.994,1.568-25.872-1.356
			C23.934,19.528,22.87,18.891,22.261,18.654z"/>
		<path class="st3" d="M43.397,61.285c0,1.415-1.147,2.561-2.561,2.561c-1.414,0-2.561-1.146-2.561-2.561
			c0-1.414,1.147-2.561,2.561-2.561C42.25,58.724,43.397,59.871,43.397,61.285z"/>
		<path class="st3" d="M61.925,61.285c0,1.415-1.147,2.561-2.561,2.561c-1.414,0-2.561-1.146-2.561-2.561
			c0-1.414,1.147-2.561,2.561-2.561C60.778,58.724,61.925,59.871,61.925,61.285z"/>
		<path class="st13" d="M40.129,68.899c0,1.822-1.975,3.298-4.412,3.298c-2.437,0-4.412-1.477-4.412-3.298
			c0-1.822,1.975-3.298,4.412-3.298C38.153,65.601,40.129,67.078,40.129,68.899z"/>
		<path class="st13" d="M68.894,68.899c0,1.822-1.975,3.298-4.412,3.298c-2.437,0-4.412-1.477-4.412-3.298
			c0-1.822,1.975-3.298,4.412-3.298C66.919,65.601,68.894,67.078,68.894,68.899z"/>
		<path class="st3" d="M50.067,83.885c-4.014,0-6.908-1.807-8.605-5.369c-0.356-0.748-0.038-1.643,0.71-1.999
			c0.749-0.354,1.643-0.038,1.999,0.71c1.188,2.496,3.061,3.658,5.896,3.658c3.317,0,5.313-2.117,5.846-3.539
			c0.291-0.777,1.157-1.171,1.931-0.88c0.776,0.291,1.17,1.155,0.88,1.931C57.733,81.04,54.604,83.885,50.067,83.885z"/>
		
			<rect x="38.977" y="97.654" transform="matrix(0.7986 -0.6019 0.6019 0.7986 -55.402 46.8619)" class="st14" width="6.688" height="17.119"/>
		<path class="st3" d="M44.803,116.562c-0.455,0-0.904-0.206-1.199-0.598l-10.303-13.671c-0.498-0.661-0.366-1.602,0.295-2.101
			l5.342-4.025c0.316-0.239,0.711-0.345,1.111-0.287c0.394,0.056,0.75,0.265,0.989,0.583l10.303,13.672
			c0.239,0.317,0.343,0.717,0.287,1.111c-0.056,0.394-0.265,0.75-0.583,0.989l-5.341,4.024
			C45.435,116.463,45.117,116.562,44.803,116.562z M36.6,101.686l8.497,11.275l2.945-2.219l-8.497-11.276L36.6,101.686z"/>
		
			<rect x="54.578" y="97.654" transform="matrix(-0.7986 -0.6019 0.6019 -0.7986 40.2527 225.8968)" class="st14" width="6.688" height="17.119"/>
		<path class="st3" d="M55.439,116.562c-0.314,0-0.631-0.099-0.901-0.302l-5.341-4.024c-0.318-0.239-0.527-0.596-0.583-0.989
			c-0.056-0.395,0.048-0.794,0.287-1.111l10.303-13.672c0.498-0.663,1.44-0.793,2.101-0.296l5.342,4.025
			c0.318,0.239,0.527,0.596,0.583,0.989c0.056,0.395-0.048,0.794-0.287,1.112l-10.304,13.67
			C56.344,116.355,55.895,116.562,55.439,116.562z M52.2,110.742l2.945,2.219l8.498-11.275l-2.946-2.22L52.2,110.742z"/>
		<polygon class="st14" points="50.147,111.041 50.128,111.061 50.098,111.041 50.118,111.011 		"/>
		<path class="st3" d="M50.127,112.561c-0.28,0-0.562-0.078-0.812-0.239c-0.696-0.449-0.927-1.397-0.478-2.094
			c0.246-0.381,0.661-0.646,1.111-0.693c0.45-0.046,0.908,0.096,1.229,0.416c0.586,0.586,0.616,1.565,0.03,2.151l-0.02,0.02
			C50.899,112.411,50.515,112.561,50.127,112.561z"/>
		<polygon class="st14" points="50.118,111.011 50.147,111.041 50.128,111.061 50.098,111.041 		"/>
		<path class="st3" d="M50.113,112.554c-0.277,0-0.556-0.076-0.799-0.232c-0.696-0.449-0.927-1.397-0.478-2.094
			c0.246-0.381,0.661-0.646,1.111-0.693c0.45-0.046,0.908,0.096,1.229,0.416l0.03,0.03c0.586,0.586,0.586,1.535,0,2.121
			C50.913,112.396,50.514,112.554,50.113,112.554z"/>
		<path class="st7" d="M22.913,171.456L22.913,171.456c-3.342,0-6.05-2.709-6.05-6.051v-6.05h12.101v6.05
			C28.964,168.747,26.255,171.456,22.913,171.456z"/>
		<path class="st3" d="M22.913,172.956c-4.163,0-7.55-3.388-7.55-7.551v-6.05c0-0.828,0.672-1.5,1.5-1.5h12.101
			c0.828,0,1.5,0.672,1.5,1.5v6.05C30.464,169.568,27.076,172.956,22.913,172.956z M18.363,160.855v4.55
			c0,2.51,2.041,4.551,4.55,4.551c2.51,0,4.551-2.041,4.551-4.551v-4.55H18.363z"/>
		<polygon class="st4" points="155.978,170.949 155.978,239.5 171.012,239.5 171.012,16.5 155.978,16.5 155.978,157.717 		"/>
		<path class="st3" d="M171.013,241h-15.034c-0.828,0-1.5-0.672-1.5-1.5v-68.551c0-0.828,0.672-1.5,1.5-1.5s1.5,0.672,1.5,1.5V238
			h12.034V18h-12.034v139.718c0,0.828-0.672,1.5-1.5,1.5s-1.5-0.672-1.5-1.5V16.5c0-0.828,0.672-1.5,1.5-1.5h15.034
			c0.828,0,1.5,0.672,1.5,1.5v223C172.513,240.328,171.841,241,171.013,241z"/>
		<polygon class="st22" points="105.256,55 156.142,55 156.142,26 105.256,26 87.909,40.5 		"/>
		<path class="st3" d="M156.142,56.5h-50.886c-0.352,0-0.692-0.124-0.962-0.35l-17.347-14.5c-0.341-0.284-0.538-0.706-0.538-1.15
			s0.197-0.866,0.538-1.15l17.347-14.5c0.27-0.226,0.61-0.35,0.962-0.35h50.886c0.828,0,1.5,0.672,1.5,1.5v29
			C157.642,55.828,156.97,56.5,156.142,56.5z M105.8,53.5h48.842v-26H105.8l-15.552,13L105.8,53.5z"/>
		<polygon class="st9" points="105.256,114 156.142,114 156.142,85 105.256,85 87.909,99.5 		"/>
		<path class="st3" d="M156.142,115.5h-50.886c-0.352,0-0.692-0.124-0.962-0.35l-17.347-14.5c-0.341-0.284-0.538-0.706-0.538-1.15
			s0.197-0.866,0.538-1.15l17.347-14.5c0.27-0.226,0.61-0.35,0.962-0.35h50.886c0.828,0,1.5,0.672,1.5,1.5v29
			C157.642,114.828,156.97,115.5,156.142,115.5z M105.8,112.5h48.842v-26H105.8l-15.552,13L105.8,112.5z"/>
		<polygon class="st21" points="221.795,143.5 170.909,143.5 170.909,114.5 221.795,114.5 239.142,129 		"/>
		<path class="st3" d="M221.795,145h-50.886c-0.828,0-1.5-0.672-1.5-1.5v-29c0-0.828,0.672-1.5,1.5-1.5h50.886
			c0.352,0,0.692,0.124,0.962,0.35l17.347,14.5c0.341,0.284,0.538,0.706,0.538,1.15s-0.197,0.866-0.538,1.15l-17.347,14.5
			C222.487,144.876,222.146,145,221.795,145z M172.409,142h48.842l15.552-13l-15.552-13h-48.842V142z"/>
		<polygon class="st30" points="221.795,84.5 170.909,84.5 170.909,55.5 221.795,55.5 239.142,70 		"/>
		<path class="st3" d="M221.795,86h-50.886c-0.828,0-1.5-0.672-1.5-1.5v-29c0-0.828,0.672-1.5,1.5-1.5h50.886
			c0.352,0,0.692,0.124,0.962,0.35l17.347,14.5c0.341,0.284,0.538,0.706,0.538,1.15s-0.197,0.866-0.538,1.15l-17.347,14.5
			C222.487,85.876,222.146,86,221.795,86z M172.409,83h48.842l15.552-13l-15.552-13h-48.842V83z"/>
		<path class="st16" d="M236.802,129l-15.55,13h-15l12.691-10.61c1.489-1.245,1.489-3.534,0-4.779L206.252,116h15L236.802,129z"/>
		<path class="st17" d="M236.802,70l-15.55,13h-15l12.691-10.61c1.489-1.245,1.489-3.534,0-4.779L206.252,57h15L236.802,70z"/>
	</g>
</g>
</svg>
