<?xml version="1.0" encoding="UTF-8"?>
<!DOCTYPE svg PUBLIC "-//W3C//DTD SVG 1.1//EN" "http://www.w3.org/Graphics/SVG/1.1/DTD/svg11.dtd">
<!-- Creator: CorelDRAW -->
<svg xmlns="http://www.w3.org/2000/svg" xml:space="preserve" width="6.82666in" height="6.82666in" style="shape-rendering:geometricPrecision; text-rendering:geometricPrecision; image-rendering:optimizeQuality; fill-rule:evenodd; clip-rule:evenodd"
viewBox="0 0 6.82666 6.82666"
 xmlns:xlink="http://www.w3.org/1999/xlink">
 <defs>
  <style type="text/css">
   <![CDATA[
    .fil0 {fill:#8BC34A}
    .fil2 {fill:#FFFFFE}
    .fil1 {fill:#FFFFFE;fill-rule:nonzero}
   ]]>
  </style>
 </defs>
 <g id="Layer_x0020_1">
  <metadata id="CorelCorpID_0Corel-Layer"/>
  <rect class="fil0" width="6.82666" height="6.82666" rx="0.853335" ry="0.853335"/>
  <g id="_215585096">
   <path id="_215586176" class="fil1" d="M5.1822 2.54142c0.169118,0.0736457 0.314413,0.20363 0.418346,0.36974 0.105087,0.167945 0.167992,0.373047 0.17026,0.593902l-1.08992 0c0.00850394,-0.0324606 0.0173937,-0.064811 0.0266181,-0.0970236 0.0288898,-0.100941 0.0616339,-0.206272 0.102909,-0.302839 0.0290669,-0.0680118 0.0657598,-0.133488 0.105067,-0.196059 0.0442047,-0.0703701 0.0925945,-0.138165 0.142508,-0.204575 0.0397323,-0.0528622 0.0808543,-0.104614 0.120654,-0.157378 0.0013937,-0.00184252 0.0025748,-0.00377559 0.00355906,-0.00576772zm-0.61798 0.963642c-0.00995669,-0.0386575 -0.0204646,-0.0771693 -0.031437,-0.115492 -0.0298071,-0.104075 -0.0636496,-0.212689 -0.106201,-0.312264 -0.0292441,-0.0684213 -0.0661575,-0.134417 -0.10552,-0.197492 -0.0449528,-0.0720433 -0.094122,-0.141535 -0.144835,-0.209626 -0.0377677,-0.0507087 -0.0767047,-0.100472 -0.114937,-0.150799 0.0211969,0.00114567 0.0411063,0.0116969 0.0538976,0.0289724 0.0119646,0.0141378 0.0242677,0.0274961 0.0368898,0.0400118 0.0140512,0.0139291 0.0285748,0.0270787 0.0435591,0.0394016 0.0554843,0.0456142 0.120008,0.0824213 0.188638,0.107079 0.0655276,0.0235433 0.134689,0.0359803 0.203094,0.0343346 0.101925,-0.00244094 0.193874,-0.0235236 0.273925,-0.0606457 0.0807835,-0.0374528 0.149496,-0.0915236 0.204055,-0.159437l-0.000145669 -0.000114173c0.010874,-0.0135354 0.0256535,-0.0220866 0.0414252,-0.0253504 -0.0371929,0.0488819 -0.0749961,0.0972677 -0.111701,0.146547 -0.0507126,0.0680906 -0.099878,0.137583 -0.144835,0.209626 -0.0393622,0.0630748 -0.0762756,0.129071 -0.105516,0.197492 -0.0425512,0.0995748 -0.0764016,0.208189 -0.106201,0.312264 -0.0109724,0.0383228 -0.0214882,0.0768346 -0.0314409,0.115492l-0.0427165 0zm-1.16387 0c0.0022874,-0.2225 0.0662165,-0.429126 0.172878,-0.597917 0.103728,-0.164161 0.248004,-0.292654 0.41572,-0.365728 0.000988189,0.00199606 0.00216929,0.00392913 0.00355906,0.00577165 0.0398071,0.0527638 0.0809252,0.104516 0.120657,0.157378 0.0499134,0.0664094 0.0983031,0.134205 0.142512,0.204575 0.0393031,0.0625709 0.076,0.128047 0.105063,0.196059 0.0412756,0.0965669 0.0740236,0.201898 0.102913,0.302839 0.00922047,0.0322126 0.0181142,0.064563 0.0266142,0.0970236l-1.08992 0z"/>
   <path id="_215584952" class="fil1" d="M4.82407 1.66298l0.00311417 0.00076378 0.000397638 0.000106299 0.00233858 0.000594488 0.000397638 0.000102362 0.00124803 0.000326772 0.00195669 0.000523622 0.00112992 0.000299213 0.00238189 0.00065748 0.000314961 8.26772e-005 0.00245669 0.000692913 0.000708661 0.00019685 0.000318898 0.000102362 0.00271654 0.000787402 0.000188976 5.90551e-005 0.00316929 0.000952756 0.000200787 5.90551e-005 0.00257874 0.000795276 0.000484252 0.000145669 0.00152362 0.000480315 0.000807087 0.00026378 0.00135433 0.000429134 0.0019685 0.000649606 0.000751969 0.000240157 0.000531496 0.000177165 0.00267323 0.000893701 2.75591e-005 7.87402e-006 0.00269291 0.000925197 0.000468504 0.000165354 0.00221654 0.000771654 0.000972441 0.00034252 0.000614173 0.000224409 0.0018622 0.000673228 0.00151575 0.000547244 0.000980315 0.000358268 0.00196063 0.000732283 0.000141732 5.11811e-005 0.00243307 0.000917323 0.00023622 9.05512e-005 0.00266535 0.00101969 0.000259843 0.000106299 7.48031e-005 3.14961e-005 0.00289764 0.0011378 0.000169291 7.08661e-005 0.00190551 0.000759843 0.00123622 0.0005 0.000598425 0.000244094 0.00162992 0.000673228 0.0015748 0.000645669 0.000244094 0.000102362 0.00220079 0.000925197 4.33071e-005 1.9685e-005 0.00275197 0.00117717 0.00026378 0.000110236 4.72441e-005 2.75591e-005 0.00256299 0.00111417 0.000535433 0.000228346 0.0020748 0.00092126 0.00100787 0.000452756 0.000582677 0.000259843 0.00192913 0.000874016 0.000570866 0.000251969 0.00110236 0.000511811 0.000767717 0.000358268 0.00165354 0.00076378 0.000165354 7.87402e-005 0.00242126 0.0011378 0.00015748 7.48031e-005 0.00256299 0.00122835 0.00196063 0.000944882 0.000807087 0.000397638 0.00162205 0.000799213 0.00115354 0.000566929 0.00172047 0.000866142 0.00038189 0.000188976 0.00172441 0.000862205 0.000248031 0.000133858 0.00204724 0.00104724 0.000685039 0.000354331 0.000350394 0.000181102 0.00250787 0.00130315 0.00011811 6.69291e-005 0.00237795 0.00125984 0.00057874 0.000307087 0.000496063 0.000267717 0.00237795 0.00128346 0.000169291 9.05512e-005 0.00229921 0.00125984 0.000527559 0.000283465 0.000980315 0.000551181 0.00193701 0.00107874 0.000519685 0.000291339 0.00237008 0.00134252 7.08661e-005 4.72441e-005 0.00243701 0.00138976 0.000370079 0.000224409 0.000704724 0.000409449 0.00196457 0.00114173 0.000192913 0.00011811 0.00159055 0.000933071 0.00125591 0.000751969 0.0011378 0.000685039 0.00169685 0.00101575 0.000685039 0.000425197 0.00211811 0.00129921 0.000255906 0.000149606 0.00235433 0.00147244 0.000181102 0.000106299 0.00216142 0.00136614 0.000161417 9.84252e-005 0.00137795 0.000885827 0.000787402 0.0005 0.00103937 0.000669291 0.00046063 0.000307087 0.00164961 0.00105906 0.00061811 0.000413386 0.000850394 0.000559055 0.00186614 0.00123228 0.000425197 0.000283465 0.00226772 0.00152362c0.0544764,0.0368071 0.0939528,0.0794134 0.102028,0.114846l-5.90551e-005 7.87402e-006 0.000295276 0.00175197 -7.87402e-005 1.1811e-005 3.93701e-006 2.3622e-005 7.87402e-006 2.75591e-005 3.93701e-006 2.3622e-005 3.93701e-006 2.3622e-005 3.93701e-006 3.14961e-005 3.93701e-006 1.9685e-005 7.87402e-006 2.75591e-005 7.87402e-006 1.9685e-005c7.48031e-005,0.000409449 0.000169291,0.000807087 0.000255906,0.00120472l3.93701e-006 2.75591e-005 7.87402e-006 2.3622e-005 3.93701e-006 2.75591e-005 7.87402e-006 2.3622e-005 3.93701e-006 2.3622e-005 7.87402e-006 2.3622e-005 0 0 3.93701e-006 2.3622e-005 1.1811e-005 3.14961e-005c0.00390945,0.0237008 0.0066063,0.0469961 0.00786614,0.0697874l5.51181e-005 0.00108268 5.90551e-005 0.00107874 5.11811e-005 0.00108661 5.51181e-005 0.00108268 5.11811e-005 0.00108661 4.33071e-005 0.00108661 4.72441e-005 0.00108268 4.33071e-005 0.00108661 4.33071e-005 0.00109055 3.54331e-005 0.00107874 3.54331e-005 0.00109055 3.93701e-005 0.00108661 3.14961e-005 0.00108268 0 3.93701e-006 2.75591e-005 0.00108661 0 0 2.3622e-005 0.00108661 2.75591e-005 0.00108268 1.5748e-005 0.00109449 3.93701e-006 0 2.3622e-005 0.00107874 1.9685e-005 0.00109449 1.5748e-005 0.00108661 0 0 7.87402e-006 0.00108661 3.93701e-006 0 7.87402e-006 0.00109055 0 0 3.93701e-006 0.00109055 3.93701e-006 0 3.93701e-006 0.00109055 0 0.00108661 0 0.00217717 0 0.00109449 -3.93701e-006 0 0 0.00108661 -3.93701e-006 0 -3.93701e-006 0.00109055 0 0 -7.87402e-006 0.00109055 -3.93701e-006 0 -2.3622e-005 0.0021811 -7.87402e-006 0 -3.54331e-005 0.00218898 -3.93701e-006 0c-0.000476378,0.0237205 -0.00269291,0.0463307 -0.00612205,0.069811 -0.0200354,0.136827 -0.0729213,0.237063 -0.145386,0.306976 -0.0919921,0.0887677 -0.217024,0.130472 -0.347209,0.137169l0 -7.08661e-005c-0.108665,0 -0.239795,-0.0448661 -0.340673,-0.142201 -0.0012126,-0.00117323 -0.00242913,-0.00235039 -0.0036378,-0.00354331l-0.000133858 -0.000137795 -0.00347244 -0.00345276 -5.90551e-005 -5.90551e-005 -0.00162598 -0.00164961 -0.00219685 -0.00224409 -0.000925197 -0.00096063 -0.00261024 -0.0027126 -0.00145669 -0.00153937 -0.0021063 -0.00224016 -0.00187795 -0.0020315 -0.00162992 -0.00176378 -0.00170472 -0.00188189 -0.00190157 -0.00211024 -0.00158661 -0.0017874 -0.00188976 -0.00214567 -0.00170472 -0.00195669 -0.00171654 -0.00199606 -0.00170472 -0.00200787 -0.00176772 -0.00210236 -0.00158268 -0.00189764 -0.00179528 -0.0021811 -0.00174016 -0.0021378 -0.00156299 -0.0019252 -0.00164567 -0.00207087 -0.0018189 -0.00230709 -0.00163386 -0.00209055 -0.00134252 -0.00174016 -0.00199606 -0.00262598 -0.00138583 -0.00183071 -0.0018189 -0.00244094 -0.00141339 -0.00192126 -0.00162598 -0.00222835 -0.00187402 -0.00260236 -0.00125591 -0.00176772 -0.00164961 -0.00235039 -0.00159843 -0.00229134 -0.00143701 -0.00210236 -0.00168504 -0.0024685 -0.00144882 -0.00216929 -0.00148425 -0.00222835 -0.00170472 -0.00260236 -0.00133465 -0.00205512 -0.00148031 -0.00233071 -0.00157087 -0.00247244 -0.00104724 -0.00167717 -0.00187402 -0.0030315 -0.000114173 -0.000177165c-0.000862205,-0.00141732 -0.00172441,-0.00283858 -0.00257087,-0.00426378l-7.08661e-005 -0.000106299 -0.00206299 -0.00350394 -0.000775591 -0.00129921 -0.000137795 -0.000240157c-0.000913386,-0.00156693 -0.0018189,-0.0031378 -0.0027126,-0.00471654l-3.54331e-005 -7.08661e-005c-0.000913386,-0.00159055 -0.00181102,-0.00320866 -0.0027126,-0.0048189l-5.90551e-005 -0.000125984c-0.000877953,-0.0015748 -0.00174409,-0.00316142 -0.00260236,-0.00475197l-0.000169291 -0.000311024 -0.000838583 -0.00158661 -0.00176772 -0.00332283 -0.00101575 -0.0019685 -0.00157087 -0.00302756 -0.00144488 -0.00286614 -0.00109055 -0.00216535 -0.00134646 -0.00275197 -0.00123228 -0.00252362 -0.00127165 -0.00264961 -0.00120866 -0.00256693 -0.00119685 -0.00256693 -0.00124803 -0.00270866 -0.00119685 -0.00266142 -0.00122047 -0.00271654 -0.00111417 -0.00255118 -0.00117323 -0.00271654 -0.00135433 -0.00317323 -0.000850394 -0.00202756 -0.00136614 -0.00331496 -0.000964567 -0.00236614 -0.00114173 -0.00285827 -0.00109843 -0.0027874 -0.00109449 -0.00283071 -0.00103543 -0.00271654 -0.00104331 -0.00277953 -0.00110236 -0.00300787 -0.000937008 -0.00257874 -0.00110236 -0.00311024 -0.000996063 -0.00284646 -0.000870079 -0.00255118 -0.00106299 -0.00313386 -0.00104724 -0.0031811 -0.000795276 -0.00242913 -0.00103543 -0.00326772 -0.000909449 -0.00287795 -0.000771654 -0.00253937 -0.00102756 -0.00338583 -0.000874016 -0.00299213 -0.000822835 -0.00284252 -0.00107087 -0.00381102 -0.000574803 -0.00203937 -0.00109055 -0.00406693 -0.000594488 -0.00220472 -0.000779528 -0.00301575 -0.000830709 -0.00325197 -4.72441e-005 -0.000185039c-0.000476378,-0.00188583 -0.000940945,-0.00378346 -0.0013937,-0.00568504l-8.66142e-005 -0.000385827c-0.000476378,-0.00198031 -0.000940945,-0.00396457 -0.00140551,-0.00596457l-2.75591e-005 -0.000161417c-0.000468504,-0.00204724 -0.000925197,-0.00411024 -0.00137795,-0.00616929l-1.9685e-005 -7.87402e-005c-0.000440945,-0.00203543 -0.000877953,-0.00409055 -0.00129921,-0.00614961l-6.69291e-005 -0.000314961c-0.000405512,-0.00198031 -0.00080315,-0.00396457 -0.00119291,-0.00596063l-5.90551e-005 -0.000275591 -0.000429134 -0.00226772 -0.000818898 -0.00434252 -0.000397638 -0.00222835 -0.000720472 -0.00405906 -0.000562992 -0.00334252 -0.00053937 -0.00322047 -0.000507874 -0.00319291 -0.00053937 -0.00351969 -0.000456693 -0.0030748 -0.000511811 -0.00354724 -0.000440945 -0.00317323 -0.00046063 -0.00348031 -0.000456693 -0.00359055 -0.000251969 -0.00207874c0.0929921,-0.0962638 0.163539,-0.12965 0.227693,-0.160012 0.069126,-0.0327165 0.131878,-0.0624291 0.20335,-0.144874 -0.00254331,0.0346417 -0.00861024,0.0629488 -0.0139409,0.0770669 -0.00547638,0.0112598 -0.00707874,0.0244606 -0.00356693,0.0375039 0.0077126,0.0287362 0.0372717,0.0457717 0.0660039,0.0380512l-1.9685e-005 -6.69291e-005c0.140752,-0.0378583 0.190484,-0.122047 0.238957,-0.243866 0.0271417,-0.0682047 0.0531575,-0.14011 0.0739331,-0.210543 0.0027874,-0.00945276 0.0126614,-0.0148898 0.0221417,-0.0121063 0.00942913,0.00277559 0.0148701,0.0126496 0.0120827,0.0220906 -0.0210551,0.0714134 -0.0476299,0.144413 -0.0751378,0.213571 -0.0056811,0.0142638 -0.0115,0.0285118 -0.0175354,0.0426693zm0.581272 0.92972c0.00143307,-0.0641181 -0.00369685,-0.316646 -0.00741732,-0.500378 -0.00205118,-0.101016 -0.00367717,-0.18098 -0.0035748,-0.19448 0.00237008,-0.306587 -0.0937047,-0.50426 -0.245547,-0.627622 -0.148252,-0.120457 -0.346193,-0.165587 -0.555362,-0.170531 -0.00304331,-0.000330709 -0.0061378,-0.000468504 -0.00927953,-0.000413386l3.93701e-006 0.000267717c-0.211547,0.00416142 -0.412024,0.0489803 -0.561807,0.170673 -0.151835,0.12337 -0.247921,0.321039 -0.245555,0.627626 0.000212598,0.026811 0.00695276,0.251874 0.0132402,0.439961 0.00316142,0.0943346 0.00623622,0.180063 0.00837795,0.228535 0.0450433,-0.0314449 0.0927874,-0.0590866 0.142961,-0.082311l-0.0010315 -0.00279921 0.0673307 -0.0248701c0.0591339,-0.0218386 0.12502,-0.00160236 0.163823,0.0474094 0.00945276,0.011937 0.0203504,0.0228819 0.0311496,0.0335906 0.0123346,0.0122165 0.0251969,0.0238976 0.0386063,0.0349213 0.0496063,0.0407795 0.106854,0.073252 0.167299,0.0949685 0.0565394,0.0203071 0.116921,0.0315669 0.177091,0.030126 0.0845079,-0.00202362 0.168484,-0.0183189 0.245425,-0.0539961 0.0657165,-0.0304685 0.122972,-0.0738268 0.169638,-0.128803l0.00848819 -0.0105748c0.0405787,-0.0505079 0.109622,-0.066689 0.168996,-0.0419134 0.0814882,0.034 0.157681,0.0779921 0.227146,0.130614z"/>
  </g>
  <polygon class="fil1" points="3.19647,3.63423 5.97333,3.63423 5.97333,3.84074 3.19647,3.84074 "/>
  <rect class="fil2" x="5.59372" y="3.80972" width="0.211738" height="1.29063"/>
  <path class="fil1" d="M1.80535 4.21836c-0.108976,-0.105146 -0.191386,-0.254508 -0.210587,-0.452685 -0.00141339,-0.014689 -0.0025315,-0.040122 -0.00335827,-0.067622 -0.00111811,-0.0367283 -0.00179134,-0.0812953 -0.00194882,-0.10274 -0.00197638,-0.255673 0.0805551,-0.422476 0.210953,-0.528409 0.126913,-0.103118 0.293142,-0.141016 0.467209,-0.144441l-1.1811e-005 -0.000456693c0.00537008,-9.84252e-005 0.0106535,0.000145669 0.0158504,0.000720472 0.170031,0.00480709 0.331917,0.0432598 0.456122,0.144177 0.130386,0.105933 0.212929,0.272736 0.210953,0.528409 -0.00015748,0.0214449 -0.000830709,0.0660118 -0.00194882,0.10274 -0.000826772,0.0275 -0.00194488,0.0529331 -0.0033622,0.067622 -0.0197402,0.203823 -0.0956969,0.353315 -0.204004,0.457827 -0.30926,0.0517598 -0.719004,0.0585079 -0.935866,-0.00514173z"/>
  <path class="fil1" d="M1.58535 4.10263c-0.133453,0.0803504 -0.248457,0.197835 -0.335295,0.340843 -0.0840472,0.138382 -0.141846,0.300752 -0.164343,0.476165 0.0190276,-0.00538189 0.0390236,-0.00827165 0.0596496,-0.00827165l2.24927 0c0.0206339,0 0.0406378,0.0028937 0.0596693,0.00827559 -0.0222402,-0.17374 -0.0790433,-0.334594 -0.16163,-0.471929 -0.0861969,-0.143315 -0.200547,-0.261291 -0.333398,-0.342362 -0.036374,0.0711614 -0.0838504,0.136878 -0.143988,0.194906l-0.023815 0.0229843 -0.0326457 0.00546063c-0.277252,0.0464055 -0.716917,0.070252 -0.983512,-0.00799606l-0.0251575 -0.00738189 -0.0188661 -0.0182047c-0.0596693,-0.0575709 -0.108185,-0.122315 -0.145941,-0.192488z"/>
  <path class="fil2" d="M1.00638 5.01347l2.52722 0c0.084185,0 0.153059,0.0666417 0.153059,0.148083l0 0.811677 -2.83334 0 0 -0.811677c0,-0.0814449 0.068874,-0.148083 0.153055,-0.148083z"/>
 </g>
</svg>
