<?xml version="1.0" encoding="utf-8"?>
<!-- Generator: Adobe Illustrator 23.0.6, SVG Export Plug-In . SVG Version: 6.00 Build 0)  -->
<svg version="1.1" id="Layer_1" xmlns="http://www.w3.org/2000/svg" xmlns:xlink="http://www.w3.org/1999/xlink" x="0px" y="0px"
	 viewBox="0 0 128 128" style="enable-background:new 0 0 128 128;" xml:space="preserve">
<style type="text/css">
	.st0{fill:#005086;}
	.st1{fill:#F7D6BF;}
	.st2{fill:#318FB5;}
	.st3{fill:#FFFFFF;}
	.st4{fill:#172956;}
</style>
<title>SKILLS</title>
<g>
	<g>
		<path class="st0" d="M51.5,70.7h4c13.7,0,24.7,11.1,24.7,24.7v9.9l0,0H26.8l0,0v-9.9C26.8,81.8,37.8,70.7,51.5,70.7
			C51.5,70.7,51.5,70.7,51.5,70.7z"/>
		<path class="st1" d="M71.1,53.2c0,2.1-0.4,4.2-1.1,6.2c-3.4,9-13.5,13.6-22.5,10.1c-9-3.4-13.6-13.5-10.1-22.5
			c3.4-9,13.5-13.6,22.5-10.1C66.6,39.5,71.1,46,71.1,53.2z"/>
		<path class="st2" d="M103,56.4l-2,3.4c-0.8,1.3-2.5,1.8-3.8,1l-3-1.7c-2,1.9-4.4,3.2-7,4v3.4c0,1.6-1.3,2.8-2.8,2.8h-4
			c-1.6,0-2.8-1.3-2.8-2.8v-3.4c-2.6-0.8-5-2.1-7-4l-0.7,0.4c3.2-8.3-0.4-17.7-8.4-21.8c0.1-0.2,0.1-0.3,0.2-0.5l2-3.4
			c0.8-1.3,2.5-1.8,3.8-1l3,1.7c2-1.9,4.4-3.2,7-4v-3.4c0-1.6,1.3-2.8,2.8-2.8c0,0,0,0,0,0h4c1.6,0,2.8,1.3,2.8,2.8c0,0,0,0,0,0v3.4
			c2.6,0.8,5,2.1,7,4l3-1.7c1.3-0.8,3.1-0.3,3.8,1l2,3.4c0.8,1.3,0.3,3.1-1,3.8c0,0,0,0,0,0l-3,1.7c0.7,2.6,0.7,5.4,0,8l3,1.7
			C103.3,53.3,103.8,55,103,56.4C103,56.4,103,56.4,103,56.4z"/>
		<ellipse class="st3" cx="82.4" cy="46.8" rx="8.1" ry="8"/>
	</g>
	<path class="st4" d="M26.1,88.1c0.1-0.4,0.2-0.7,0.3-1.1c0.3-0.9,1.3-1.4,2.2-1.1c0.9,0.3,1.4,1.3,1.1,2.2
		c-0.1,0.3-0.2,0.6-0.3,0.9c-0.3,0.9-1.3,1.4-2.2,1.2C26.3,89.9,25.8,89,26.1,88.1L26.1,88.1z M104.5,57.3l-2,3.4
		c-1.3,2.2-4,2.9-6.2,1.7l-1.9-1.1c-1.6,1.3-3.5,2.4-5.5,3.1v2.2c0,2.5-2,4.6-4.6,4.6h-4c-2.5,0-4.6-2-4.6-4.6v-2.2
		c-1.8-0.7-3.4-1.6-4.9-2.7c-1.7,3.6-4.5,6.5-8,8.4C74.2,73.3,82,83.7,82,95.5v9.9c0,1-0.8,1.7-1.8,1.8H26.8c-1,0-1.7-0.8-1.8-1.8
		v-9.9c0-1,0.8-1.8,1.8-1.8s1.8,0.8,1.8,1.8v8.1h50v-8.1c0-12.7-10.3-23-23-23c-0.2,0-4.3,0-4,0c-7.6,0-14.8,3.8-19.1,10.1
		c-0.6,0.8-1.6,1-2.4,0.4c-0.8-0.5-1-1.6-0.5-2.4c3.5-5.1,8.6-8.9,14.6-10.6c-9.3-5.1-12.7-16.8-7.5-26.1c3.4-6.1,9.9-10,16.9-9.9
		c2.5,0,5,0.5,7.3,1.4l1.4-2.4c1.3-2.2,4-2.9,6.2-1.7l1.9,1.1c1.6-1.3,3.5-2.4,5.5-3.1v-2.2c0-2.5,2-4.6,4.6-4.6h4
		c2.5,0,4.6,2,4.6,4.6v2.2c2,0.7,3.8,1.8,5.5,3.1l1.9-1.1c2.2-1.2,5-0.5,6.2,1.7l2,3.4c1.3,2.2,0.5,5-1.6,6.2c0,0,0,0,0,0l-1.9,1.1
		c0.4,2,0.4,4.1,0,6.2l1.9,1.1C105,52.3,105.8,55.1,104.5,57.3C104.5,57.3,104.5,57.3,104.5,57.3L104.5,57.3z M68.3,58.8
		c3.9-10.3-3.8-21.3-14.8-21.3c-8.7,0-15.8,7-15.8,15.7c0,8.7,7,15.8,15.7,15.8h0.1C60.1,68.9,65.9,64.9,68.3,58.8z M101.1,54.1
		l-3-1.7c-0.7-0.4-1-1.2-0.8-1.9c0.6-2.4,0.6-4.8,0-7.2c-0.2-0.8,0.1-1.6,0.8-1.9l3-1.7c0.5-0.3,0.7-0.9,0.4-1.4c0,0,0,0,0,0l-2-3.4
		c-0.3-0.5-0.9-0.7-1.5-0.4c0,0,0,0,0,0l-3,1.7c-0.7,0.4-1.5,0.3-2.1-0.2c-1.8-1.7-3.9-2.9-6.3-3.6c-0.7-0.2-1.3-0.9-1.3-1.7v-3.4
		c0-0.6-0.5-1.1-1.1-1.1h-4c-0.6,0-1.1,0.5-1.1,1.1v3.4c0,0.8-0.5,1.5-1.3,1.7c-2.3,0.7-4.5,1.9-6.3,3.6c-0.6,0.5-1.4,0.6-2.1,0.2
		l-3-1.7c-0.5-0.3-1.2-0.1-1.5,0.4L63.9,37c5.4,3.4,8.9,9.5,8.9,16.2c0,1.5-0.2,3.4-0.6,4.9c1.7,1.5,3.7,2.6,5.9,3.2
		c0.7,0.2,1.3,0.9,1.3,1.7v3.4c0,0.6,0.5,1.1,1.1,1.1h4c0.6,0,1.1-0.5,1.1-1.1v-3.4c0-0.8,0.5-1.5,1.3-1.7c2.3-0.7,4.5-1.9,6.3-3.6
		c0.6-0.5,1.4-0.6,2.1-0.2l3,1.7c0.5,0.3,1.2,0.1,1.5-0.4c0,0,0,0,0,0l2-3.4l0,0C101.8,55,101.6,54.4,101.1,54.1z M92.2,46.8
		c0,5.4-4.3,9.9-9.8,9.9c-5.4,0-9.9-4.3-9.9-9.8s4.3-9.9,9.8-9.9c0,0,0,0,0.1,0C87.8,37,92.2,41.4,92.2,46.8L92.2,46.8z M88.7,46.8
		c0-3.5-2.8-6.4-6.3-6.4c-3.5,0-6.4,2.8-6.4,6.3s2.8,6.4,6.3,6.4c0,0,0,0,0.1,0C85.9,53.1,88.7,50.3,88.7,46.8L88.7,46.8z"/>
</g>
</svg>
